<svg xmlns="http://www.w3.org/2000/svg" width="30" height="30" viewBox="0 0 30 30">
    <g fill="none" fill-rule="evenodd">
        <circle cx="15" cy="15" r="15" fill="#3A3A3A" opacity=".5"/>
        <path fill="#FFF" d="M18.228 13.363l-4.787 5.903a1.032 1.032 0 0 1-1.466 0 1.18 1.18 0 0 1-.195-1.628l4.787-5.904c.39-.407.977-.407 1.465 0 .196.204.391.509.391.814.098.306 0 .61-.195.815zm-2.109 7.922l-2.19 2.477c-1.459 1.684-4.273 1.585-6.15.099-1.876-1.585-2.398-4.26-.938-5.944l2.19-2.476c1.042-1.189 2.71-1.585 4.273-1.09l-4.378 5.052c-.626.694-.209 1.882.625 2.576.834.693 2.085.792 2.71.198l4.38-5.052c.208.396.312.891.416 1.288.105 1.09-.208 2.08-.938 2.872zm7.03-8.149l-2.158 2.448a3.903 3.903 0 0 1-2.878 1.273c-.513 0-.924-.098-1.438-.196l4.316-4.994c.616-.685.205-1.86-.617-2.448-.822-.685-2.055-.783-2.672-.195l-4.315 4.896c-.72-1.371-.617-3.036.41-4.211l2.159-2.448c1.438-1.665 4.213-1.665 6.165-.098 2.055 1.665 2.466 4.309 1.027 5.973z"/>
    </g>
</svg>
