<svg version="1.1" xmlns="http://www.w3.org/2000/svg" xmlns:xlink="http://www.w3.org/1999/xlink" x="0px" y="0px" viewBox="0 0 69 37.3" style="enable-background:new 0 0 69 37.3;" xml:space="preserve">
    <style type="text/css">
    .st0 {
        display: none;
    }
    
    .st1 {
        display: inline;
        fill: #231815;
        stroke: #FFFFFF;
        stroke-miterlimit: 10;
    }
    
    .st2 {
        fill: #F27124;
    }
    </style>
    <g id="圖層_1">
        <path class="st2" d="M32.8,6.1H15.5c-2.6,0-4.7,1.3-6.2,4c-1.2,2.2-1.8,4.9-1.8,8.1c0,3.3,0.6,6.1,1.9,8.4c1.5,2.8,3.5,4.2,6.1,4.2
        c0,0,16.8,0,17.4,0v6.5H14c-4.4,0-7.9-1.9-10.5-5.6C1.2,28.3,0,24,0,19c0-5.1,1.2-9.6,3.6-13.1C6.2,2,9.7,0,14,0h18.8V6.1z
         M66.5,18.4c-1.8,2.2-4.3,3.3-7.4,3.3h-8.7c-2.6,0-4.5,0.9-5.6,2.6c-0.8,1.2-1.1,2.6-1.1,4.3c0,0.8,0,1,0,1.1
        c0,0.1,0.1,0.3,0.1,0.4V30l0,0.2c0,0,0-0.1,0-0.1v7.2h-6.8c0-0.5,0-1,0-1.6v-4.5c0-1.9,0-3.9,0.1-5.9c0-2.9,0.7-5.3,2.2-7
        c1.6-2,4.1-3,7.4-3h11c1.3,0,2.4-0.5,3.2-1.4c0.7-0.9,1.1-1.9,1.1-3.1c0-1.2-0.3-2.3-1-3.1c-0.8-1-1.9-1.5-3.2-1.5H37V0h22.1
        c3.1,0,5.6,1.1,7.4,3.3c1.7,2,2.5,4.6,2.5,7.5C69,13.8,68.2,16.3,66.5,18.4z" />
    </g>
</svg>
