<?xml version="1.0" encoding="utf-8"?>
<!-- Generator: Adobe Illustrator 19.1.0, SVG Export Plug-In . SVG Version: 6.00 Build 0)  -->
<svg version="1.1" id="圖層_1" xmlns="http://www.w3.org/2000/svg" xmlns:xlink="http://www.w3.org/1999/xlink" x="0px" y="0px"
	 viewBox="-309.9 417.2 86.8 10.6" style="enable-background:new -309.9 417.2 86.8 10.6;" xml:space="preserve">
<style type="text/css">
	.st0{display:none;}
	.st1{display:inline;fill:#231815;stroke:#FFFFFF;stroke-miterlimit:10;}
	.st2{fill:#F26F21;}
</style>
<g id="圖層_2" class="st0">
	<rect x="-323.1" y="309.3" class="st1" width="254.7" height="183.7"/>
</g>
<g>
	<path class="st2" d="M-290.8,425c-0.7-2-1.2-3.5-1.5-4.5c-0.7-2.1-0.9-2.4-1-2.5c-0.2-0.3-0.5-0.5-0.9-0.6
		c-0.4-0.2-0.8-0.2-1.3-0.2c-0.5,0-0.9,0.1-1.3,0.2c-0.4,0.1-0.7,0.3-0.9,0.6c0,0.1-0.2,0.5-1,2.6c-0.5,1.4-1,2.9-1.5,4.5l-0.2,0.7
		c0,0,0,0.2-0.2,0.2c-0.2,0-4.9,0-4.9,0c-0.7,0-1.3-0.4-1.7-1.2c-0.4-0.7-0.5-1.5-0.5-2.4c0-0.9,0.2-1.7,0.5-2.3
		c0.4-0.7,1-1.1,1.7-1.1h5.9v-1.7h-6.3c-1.2,0-2.2,0.6-2.9,1.7c-0.7,1-1,2.3-1,3.7c0,1.4,0.3,2.7,1,3.6c0.7,1.1,1.7,1.6,3,1.6h6.8
		c0.1,0,0.3-0.1,0.3-0.2l0.2-0.7l0.2-0.5c0,0,2.4-6.9,2.4-6.9c0,0,0,0,0,0l0,0c0.1-0.2,0.3-0.3,0.5-0.3c0.2,0,0.4,0.1,0.5,0.3l0,0
		l2.9,8.4h2.1c0,0,0,0,0,0c0,0,0,0,0,0l-0.4-1.2L-290.8,425z"/>
	<polygon class="st2" points="-285.8,419.2 -285.8,419 -285.6,419 -282.3,419 -282.3,417.2 -291.4,417.2 -291.4,419 -288,419 
		-287.8,419 -287.8,419.2 -287.8,427.8 -285.8,427.8 	"/>
	<path class="st2" d="M-228.1,421.4c0,0-0.1,0.1-0.1,0.1c-0.1,0.1-0.2,0.1-0.3,0.1c-0.2,0-0.4-0.1-0.5-0.3l-2.7-3.9h-2.3
		c0.9,1.3,4.3,6.6,4.3,6.6l0,0l0,0v0.1v3.8h1.9V424V424l0,0l0,0l4.4-6.6h-2.3l-1.4,2.1C-226.8,419.4-228,421.4-228.1,421.4z"/>
	<path class="st2" d="M-270.9,425.8v0.2h-0.2h-6.4c-0.7,0-1.3-0.4-1.7-1.2c-0.4-0.7-0.5-1.5-0.5-2.4c0-0.9,0.2-1.7,0.5-2.3
		c0.4-0.7,1-1.1,1.7-1.1h4.9v-1.7h-5.3c-1.2,0-2.2,0.6-2.9,1.7c-0.7,1-1,2.3-1,3.7c0,1.4,0.3,2.7,1,3.6c0.7,1.1,1.7,1.6,3,1.6h8.9
		v-4.2v-0.2h0.2h4.8h0.2v0.2v4.2h1.9v-10.6h-1.9v4.1v0.2h-0.2h-4.8h-0.2v-0.2v-4.1h-2V425.8z"/>
	<path class="st2" d="M-253,420.3c0-1-0.9-1.4-1.1-1.4c-0.2,0-5.9,0-5.9,0v-1.7h6.4c0,0,2.7,0,2.7,3.1c0,3.1-2.7,3-2.7,3h-3.1
		c0,0-1.4,0-1.4,2c0,2.2,0,2.5,0,2.5h-1.9v-2.2v-0.9c0,0,0.1-3.1,2.8-3.1h3.2C-254.1,421.6-253,421.3-253,420.3z"/>
	<path class="st2" d="M-231.9,427.7l-0.3-1c0-0.1-0.1-0.2-0.1-0.2l0,0l-0.1-0.2l-0.4-1.3c-0.7-2-1.1-3.5-1.5-4.4
		c-0.7-2-0.9-2.4-1-2.5c-0.2-0.3-0.5-0.5-0.8-0.6c-0.4-0.2-0.8-0.2-1.3-0.2c-0.5,0-0.9,0.1-1.3,0.2c-0.4,0.1-0.7,0.3-0.8,0.6
		c0,0.1-0.2,0.5-1,2.5c-0.5,1.4-1,2.9-1.5,4.4l-0.2,0.7c0,0-0.1,0.2-0.2,0.2c-0.2,0-2.7,0-2.7,0c-0.5,0-1.1,0-1.5-0.3
		c-1-0.8-1.2-2.2-1.2-3.4c0,0,0-4.9,0-4.9h-1.9c0,0.6,0,1.3,0,1.9c0,0.9,0,1.8,0,2.7c0,1.4,0,2.9,0.8,4.1c0.7,1,1.4,1.6,2.9,1.7
		c0.3,0,0.7,0,1.1,0h4.1c0.1,0,0.3-0.1,0.3-0.2l0.2-0.7l0.2-0.5c0,0,2.4-6.9,2.4-6.9c0,0,0,0,0,0l0,0c0.1-0.2,0.3-0.3,0.5-0.3
		c0.2,0,0.4,0.1,0.5,0.3l2.9,8.3L-231.9,427.7C-231.9,427.7-231.9,427.7-231.9,427.7C-231.9,427.7-231.9,427.7-231.9,427.7z"/>
</g>
</svg>
